<svg width="20" height="20" viewBox="0 0 20 20" fill="none" xmlns="http://www.w3.org/2000/svg">
<path d="M2.04494 6.61623C2.27935 6.38189 2.59723 6.25024 2.92869 6.25024C3.26014 6.25024 3.57803 6.38189 3.81244 6.61623L9.99994 12.8037L16.1874 6.61623C16.4232 6.38853 16.7389 6.26254 17.0667 6.26538C17.3944 6.26823 17.708 6.39969 17.9397 6.63145C18.1715 6.86321 18.3029 7.17673 18.3058 7.50448C18.3086 7.83222 18.1826 8.14797 17.9549 8.38373L10.8837 15.455C10.6493 15.6893 10.3314 15.821 9.99994 15.821C9.66848 15.821 9.3506 15.6893 9.11619 15.455L2.04494 8.38373C1.8106 8.14932 1.67896 7.83143 1.67896 7.49998C1.67896 7.16852 1.8106 6.85064 2.04494 6.61623Z" fill="#F3FCF0"/>
</svg>
