<svg width="19" height="20" viewBox="0 0 19 20" fill="none" xmlns="http://www.w3.org/2000/svg">
<g clip-path="url(#clip0_130_1316)">
<path d="M18.4 9.19995V10.8C18.4 11.2416 18.2646 11.6187 17.9938 11.9312C17.7229 12.2437 17.3708 12.4 16.9375 12.4H8.1375L11.8 16.075C12.1167 16.375 12.275 16.75 12.275 17.2C12.275 17.65 12.1167 18.025 11.8 18.325L10.8625 19.275C10.5542 19.5833 10.1792 19.7375 9.7375 19.7375C9.30417 19.7375 8.925 19.5833 8.6 19.275L0.4625 11.125C0.154167 10.8166 0 10.4416 0 9.99995C0 9.56662 0.154167 9.18745 0.4625 8.86245L8.6 0.737451C8.91667 0.420785 9.29583 0.262451 9.7375 0.262451C10.1708 0.262451 10.5458 0.420785 10.8625 0.737451L11.8 1.66245C12.1167 1.97912 12.275 2.35828 12.275 2.79995C12.275 3.24162 12.1167 3.62078 11.8 3.93745L8.1375 7.59995H16.9375C17.3708 7.59995 17.7229 7.7562 17.9938 8.0687C18.2646 8.3812 18.4 8.75829 18.4 9.19995Z" fill="#540D6E"/>
</g>
<defs>
<clipPath id="clip0_130_1316">
<rect width="18.4" height="20" fill="white"/>
</clipPath>
</defs>
</svg>
