<svg width="20" height="20" viewBox="0 0 20 20" fill="none" xmlns="http://www.w3.org/2000/svg">
<path d="M17.8269 14.8831C17.5032 14.5644 13.58 13.0469 12.8682 12.7606C12.16 12.4794 11.8775 11.7 11.8775 11.7C11.8775 11.7 11.5588 11.8762 11.5588 11.3812C11.5588 10.8856 11.8775 11.7 12.1963 9.78874C12.1963 9.78874 13.0807 9.54062 12.905 7.48874H12.6925C12.6925 7.48874 13.2238 5.29499 12.6925 4.55249C12.1594 3.80999 11.9507 3.31499 10.78 2.95999C9.61129 2.60562 10.0363 2.67624 9.18754 2.71249C8.33754 2.74812 7.63004 3.20812 7.63004 3.45499C7.63004 3.45499 7.09879 3.49062 6.88754 3.70312C6.67504 3.91562 6.32129 4.90562 6.32129 5.15312C6.32129 5.40062 6.49817 7.06562 6.67504 7.41812L6.46442 7.48687C6.28754 9.53937 7.17192 9.78812 7.17192 9.78812C7.49067 11.6994 7.80942 10.885 7.80942 11.3806C7.80942 11.8756 7.49067 11.6994 7.49067 11.6994C7.49067 11.6994 7.20754 12.4781 6.50004 12.76C5.79254 13.0431 1.86504 14.5644 1.54567 14.8825C1.22692 15.2075 1.26254 16.6925 1.26254 16.6925H8.78504L9.33379 14.53L8.84629 14.0425L9.68567 13.2019L10.525 14.0419L10.0375 14.5294L10.5863 16.6919H18.1088C18.1088 16.6919 18.1482 15.2056 17.8257 14.8812L17.8269 14.8831Z" fill="#F3FCF0"/>
</svg>
