<svg width="20" height="20" viewBox="0 0 20 20" fill="none" xmlns="http://www.w3.org/2000/svg">
<path d="M15 13.125V14.375H16.0925C15.3994 15.3436 14.4849 16.1325 13.4251 16.6761C12.3653 17.2197 11.191 17.5022 10 17.5C5.86438 17.5 2.5 14.1356 2.5 10H1.25C1.25 14.825 5.175 18.75 10 18.75C12.7219 18.75 15.2338 17.4994 16.875 15.4094V16.25H18.125V13.125H15Z" fill="#F3FCF0"/>
<path d="M14.0656 7.27324L10.3225 5.08574C10.227 5.02986 10.1183 5.00035 10.0076 5.00024C9.89689 5.00013 9.78816 5.02942 9.6925 5.08512L5.93562 7.27262C5.84115 7.3276 5.76274 7.4064 5.70824 7.50116C5.65373 7.59591 5.62503 7.70331 5.625 7.81262V12.1876C5.62503 12.2969 5.65373 12.4043 5.70824 12.4991C5.76274 12.5938 5.84115 12.6726 5.93562 12.7276L9.6925 14.9151C9.78545 14.9707 9.89171 15.0001 10 15.0001C10.1087 15.0001 10.225 14.972 10.3225 14.9145L14.0656 12.727C14.1598 12.6719 14.2379 12.5931 14.2921 12.4985C14.3464 12.4039 14.375 12.2967 14.375 12.1876V7.81262C14.375 7.70353 14.3464 7.59635 14.2921 7.50173C14.2379 7.4071 14.1598 7.32833 14.0656 7.27324ZM10.0069 6.34824L12.5112 7.81262L10.0069 9.27637L7.4925 7.81262L10.0069 6.34824ZM6.875 8.90012L9.375 10.3564V13.2845L6.875 11.8282V8.90012ZM10.625 13.2907V10.3639L13.125 8.90262V11.8295L10.625 13.2907Z" fill="#F3FCF0"/>
<path d="M10 1.25001C8.67558 1.24809 7.36814 1.54793 6.1769 2.12676C4.98567 2.70559 3.94196 3.54821 3.125 4.59063V3.75001H1.875V6.87501H5V5.62501H3.9075C4.60061 4.65642 5.51514 3.86747 6.5749 3.3239C7.63466 2.78032 8.80897 2.49784 10 2.50001C14.1356 2.50001 17.5 5.86438 17.5 10H18.75C18.75 5.17501 14.825 1.25001 10 1.25001Z" fill="#F3FCF0"/>
</svg>
