<svg width="20" height="20" viewBox="0 0 20 20" fill="none" xmlns="http://www.w3.org/2000/svg">
<path d="M15 15.4167C14.6685 15.4167 14.3506 15.285 14.1162 15.0506C13.8817 14.8162 13.75 14.4982 13.75 14.1667C13.75 13.8352 13.8817 13.5172 14.1162 13.2828C14.3506 13.0484 14.6685 12.9167 15 12.9167C15.3316 12.9167 15.6495 13.0484 15.8839 13.2828C16.1183 13.5172 16.25 13.8352 16.25 14.1667C16.25 14.4982 16.1183 14.8162 15.8839 15.0506C15.6495 15.285 15.3316 15.4167 15 15.4167ZM16.25 7.91671L17.8834 10H14.1667V7.91671M5.00004 15.4167C4.66852 15.4167 4.35058 15.285 4.11616 15.0506C3.88174 14.8162 3.75004 14.4982 3.75004 14.1667C3.75004 13.8352 3.88174 13.5172 4.11616 13.2828C4.35058 13.0484 4.66852 12.9167 5.00004 12.9167C5.33156 12.9167 5.6495 13.0484 5.88392 13.2828C6.11835 13.5172 6.25004 13.8352 6.25004 14.1667C6.25004 14.4982 6.11835 14.8162 5.88392 15.0506C5.6495 15.285 5.33156 15.4167 5.00004 15.4167ZM16.6667 6.66671H14.1667V3.33337H2.50004C1.57504 3.33337 0.833374 4.07504 0.833374 5.00004V14.1667H2.50004C2.50004 14.8297 2.76343 15.4656 3.23227 15.9345C3.70111 16.4033 4.337 16.6667 5.00004 16.6667C5.66308 16.6667 6.29897 16.4033 6.76781 15.9345C7.23665 15.4656 7.50004 14.8297 7.50004 14.1667H12.5C12.5 14.8297 12.7634 15.4656 13.2323 15.9345C13.7011 16.4033 14.337 16.6667 15 16.6667C15.6631 16.6667 16.299 16.4033 16.7678 15.9345C17.2367 15.4656 17.5 14.8297 17.5 14.1667H19.1667V10L16.6667 6.66671Z" fill="#F3FCF0"/>
</svg>
